<?xml version="1.0" encoding="UTF-8"?>
<svg id="svg4" width="48" height="48" version="1.1" xmlns="http://www.w3.org/2000/svg" xmlns:xlink="http://www.w3.org/1999/xlink">
	<defs id="defs2">
		<linearGradient id="linearGradient6" x1="2.03e-9" x2="16" y1="16" y2="16" gradientTransform="matrix(1.25 0 0 1.25 14.4 1.63)" gradientUnits="userSpaceOnUse">
			<stop id="stop1-22" stop-color="#ffd42a" offset="0"/>
			<stop id="stop6-8" stop-color="#c779d0" offset=".469"/>
			<stop id="stop2-9" stop-color="#4bc0c8" offset="1"/>
		</linearGradient>
		<linearGradient id="linearGradient20" x1="10.7" x2="37.2" y1="18.3" y2="44.8" gradientTransform="matrix(1.51 0 0 1.51 -19.4 -32.6)" gradientUnits="userSpaceOnUse">
			<stop id="stop1" stop-color="#e938b8" offset="0"/>
			<stop id="stop3" stop-color="#7400b2" offset=".501"/>
			<stop id="stop2" stop-color="#fb5eed" offset="1"/>
		</linearGradient>
	</defs>
	<path id="path18" d="m20.9 1c-13.2 0.0183-19.9 11.5-19.9 20 0.0142 4.4 1.48 8.67 4.17 12.1l-0.0479 10.6c0.00187 1.77 1.44 3.2 3.22 3.2 0.737-0.011 1.45-0.273 2.01-0.743 1.97-1.94 3.97-3.93 5.95-5.89 1.51 0.385 3.07 0.59 4.63 0.611h6.14c13.9 0 20.4-12.6 19.9-20.6-0.314-10.8-9.13-19.4-19.9-19.4zm0 2.98h6.13c9.36 8.95e-4 17 7.59 17 17 0.0163 0.0121 0.0046 0.0654 0.0061 0.0899-1e-3 9.37-7.59 17-17 17h-6.14c-1.88-9e-3 -3.75-0.331-5.52-0.953-1.88 1.88-3.75 3.75-5.63 5.63-0.142 0.147-0.393 0.194-0.617 0.198-0.584-0.00144-1.06-0.467-1.07-1.05v-9.74c-2.65-3.07-4.11-7-4.12-11.1 0-7.61 5.93-17 17-17z" fill="url(#linearGradient20)" opacity=".99" stroke-width="1.51"/>
	<path id="path1" class="ColorScheme-ButtonBackground" d="m25 11.6c-0.537-0.016-0.645 0.0026-0.8 0.141-0.254 0.222-0.242 0.698 0.0212 0.901 0.142 0.106 0.25 0.13 0.876 0.166 1.85 0.106 3.27 0.595 4.63 1.6 1.64 1.2 2.67 2.87 3.06 4.97 0.0997 0.534 0.15 0.981 0.183 1.67 0.0199 0.451 0.0349 0.551 0.0947 0.667 0.188 0.352 0.738 0.403 0.988 0.0898 0.132-0.161 0.147-0.285 0.123-0.849-0.0623-1.65-0.429-3.15-1.07-4.41-0.461-0.905-0.893-1.49-1.68-2.26-0.836-0.815-1.47-1.26-2.46-1.73-1.01-0.48-1.92-0.748-3.05-0.886-0.224-0.0259-0.638-0.0565-0.918-0.0657zm-7.03 0.331c-0.149-0.0136-0.294-0.0128-0.401 0.0097h-0.0025c-0.313 0.0647-0.706 0.293-1.56 0.911-0.51 0.374-1.21 1.04-1.38 1.31-0.382 0.641-0.36 1.19 0.105 2.44 0.797 2.15 1.96 4.22 3.49 6.21 2.93 3.82 6.63 6.6 11.3 8.46 0.589 0.238 0.781 0.278 1.24 0.256 0.559-0.0261 0.984-0.196 1.58-0.641 0.663-0.491 1.61-1.64 1.86-2.26 0.231-0.583 0.169-1.11-0.173-1.52-0.194-0.228-1.63-1.38-2.3-1.84-0.51-0.348-1.3-0.827-1.66-1.01-0.477-0.238-0.953-0.279-1.42-0.125-0.366 0.123-0.486 0.228-1.02 0.884-0.277 0.335-0.532 0.64-0.564 0.668-0.0361 0.0287-0.152 0.0922-0.26 0.141-0.431 0.197-1.02 0.0785-1.99-0.393-0.751-0.363-1.42-0.823-2.17-1.5-0.642-0.572-1.29-1.32-1.65-1.9-0.468-0.75-0.824-1.72-0.827-2.26 0-0.232 0.0958-0.561 0.214-0.728 0.0461-0.0672 0.339-0.322 0.652-0.57 0.781-0.615 0.955-0.807 1.06-1.17 0.102-0.341-0.0077-0.803-0.333-1.42-0.57-1.09-2.31-3.27-2.94-3.67-0.102-0.0647-0.282-0.154-0.397-0.192-0.119-0.042-0.272-0.0716-0.421-0.0853zm7.34 2.02c-0.186 0.0285-0.294 0.104-0.379 0.234h-0.0025c-0.158 0.235-0.14 0.519 0.0486 0.728 0.121 0.138 0.299 0.203 0.623 0.229 0.893 0.0704 1.87 0.356 2.54 0.743 0.77 0.448 1.4 1.09 1.84 1.87 0.383 0.683 0.604 1.56 0.604 2.4 0 0.541 0.0748 0.739 0.329 0.865 0.151 0.0773 0.426 0.0835 0.554 0.0187 0.118-0.0611 0.257-0.207 0.299-0.317 0.0461-0.116 0.0448-0.815 0.0025-1.2-0.122-1.05-0.476-2.02-1.05-2.85-1.01-1.47-2.56-2.38-4.56-2.67-0.394-0.058-0.657-0.0748-0.842-0.0462zm0.699 2.41c-0.0636 0.0072-0.107 0.0233-0.171 0.0536-0.333 0.167-0.425 0.621-0.184 0.901 0.131 0.151 0.254 0.196 0.659 0.244 0.863 0.103 1.37 0.419 1.66 1.03 0.135 0.286 0.216 0.596 0.258 1.04 0.0361 0.332 0.086 0.454 0.243 0.57 0.218 0.164 0.576 0.157 0.77-0.017 0.207-0.186 0.244-0.411 0.154-0.984-0.131-0.878-0.43-1.49-0.978-2-0.425-0.39-0.923-0.632-1.57-0.767-0.135-0.0284-0.386-0.0564-0.558-0.0657h-0.0025c-0.136-0.0079-0.219-0.0096-0.282-0.0025z" color="#d5c289" fill="url(#linearGradient6)" stroke-width="1.25"/>
</svg>
