<?xml version="1.0" encoding="UTF-8"?>
<svg id="svg111" width="48" height="48" version="1.1" xmlns="http://www.w3.org/2000/svg" xmlns:xlink="http://www.w3.org/1999/xlink">
	<defs id="defs33">
		<linearGradient id="linearGradient1">
			<stop id="stop1" stop-color="#ff8080" offset="0"/>
			<stop id="stop3" stop-color="#0cf" offset="1"/>
		</linearGradient>
		<linearGradient id="linearGradient3" x1="2.88" x2="14.5" y1="7.33" y2="7.23" gradientTransform="matrix(3.54 0 0 3.07 -4.31 -.533)" gradientUnits="userSpaceOnUse" xlink:href="#linearGradient1"/>
		<linearGradient id="linearGradient18" x1="3" x2="13.3" y1="11" y2="10.9" gradientTransform="matrix(4.38 0 0 3.83 -11.2 -6.81)" gradientUnits="userSpaceOnUse" xlink:href="#linearGradient1"/>
	</defs>
	<path id="path1" d="m5.88 1c-2.7 0-4.88 1.96-4.88 4.38v26.7c0 1.1 0.875 1.98 1.97 2 0.704 0 1.95-6e-6 2.92-6e-6v-26.5c-6.75e-5 -1.21 0.0674-2.19 2.44-2.19h31.2c2.37 0 2.44 0.982 2.44 2.19v32.9c0 1.97-0.314 2.19-2.44 2.19l-29-2e-3c-1.21-4.54e-4 -2.19 0.981-2.19 2.19-5.01e-4 1.21 0.981 2.19 2.19 2.19h31.4c2.7 0 4.88-1.96 4.88-4.38v-37.2c0-2.42-2.19-4.38-4.88-4.38zm3.3 6.13c-0.613 0-1.11 0.41-1.11 0.914v2.55c0 0.504 0.497 0.912 1.11 0.912h2.66c0.613 0 1.11-0.408 1.11-0.912v-2.55c-1e-6 -0.504-0.497-0.914-1.11-0.914zm7.26 0c-0.578 0-1.04 0.686-1.04 1.53 0 0.848 0.467 1.53 1.04 1.53h12.6c0.578 0 1.04-0.686 1.04-1.53 0-0.848-0.467-1.53-1.04-1.53zm-7.26 5.91c-0.613 0-1.11 0.41-1.11 0.914v2.55c0 0.504 0.497 0.912 1.11 0.912h2.66c0.613 0 1.11-0.408 1.11-0.912v-2.55c0-0.504-0.497-0.914-1.11-0.914zm7.61 0.658c-0.771 0-1.39 0.686-1.39 1.53 0 0.848 0.624 1.53 1.39 1.53h16.7c0.771 0 1.39-0.686 1.39-1.53 0-0.848-0.624-1.53-1.39-1.53zm0.348 6.57c-0.964 0-1.74 0.686-1.74 1.53 0 0.848 0.778 1.54 1.74 1.54h20.9c0.964 0 1.74-0.687 1.74-1.54 0-0.848-0.78-1.53-1.74-1.53z" fill="url(#linearGradient3)" stroke-width="3.29"/>
	<path id="path2-6" class="ColorScheme-Text" d="m14.3 23.7a0.279 0.245 0 0 0-0.258 0.244v3.65a0.279 0.245 0 0 1-0.279 0.244h-8.22v6.31h8.22a0.279 0.245 0 0 1 0.279 0.246v3.65a0.279 0.245 0 0 0 0.453 0.191l10.2-7.06a0.279 0.245 0 0 0 0-0.385l-10.2-7.06a0.279 0.245 0 0 0-0.195-0.0508z" color="#d6dbf1" fill="#ff8080" stroke-width="2.45"/>
	<path id="path2-6-3" class="ColorScheme-Text" d="m33.5 38.4v3.65a0.279 0.245 0 0 1-0.452 0.192l-10.2-7.06a0.279 0.245 0 0 1 0-0.384l10.2-7.06a0.279 0.245 0 0 1 0.452 0.192v3.65a0.279 0.245 0 0 0 0.279 0.244h12.8a0.279 0.245 0 0 1 0.279 0.245v5.83a0.279 0.245 0 0 1-0.279 0.245h-12.8a0.279 0.245 0 0 0-0.279 0.245z" color="#d6dbf1" fill="url(#linearGradient18)" stroke-width="2.45"/>
</svg>
