<?xml version="1.0" encoding="UTF-8" standalone="no"?>
<!-- Generator: Gravit.io -->

<svg
   style="isolation:isolate"
   viewBox="0 0 48 48"
   width="48pt"
   height="48pt"
   version="1.1"
   id="svg2"
   sodipodi:docname="org.kde.dolphin.svg"
   inkscape:version="1.3.2 (091e20ef0f, 2023-11-25)"
   xmlns:inkscape="http://www.inkscape.org/namespaces/inkscape"
   xmlns:sodipodi="http://sodipodi.sourceforge.net/DTD/sodipodi-0.dtd"
   xmlns="http://www.w3.org/2000/svg"
   xmlns:svg="http://www.w3.org/2000/svg">
  <defs
     id="defs2">
    <linearGradient
       id="_lgradient_20"
       x1="0"
       y1="0.5"
       x2="1"
       y2="0.5"
       gradientTransform="matrix(-37.502511,8.9114114,4.7081777,19.814804,39.237254,11.893243)"
       gradientUnits="userSpaceOnUse">
      <stop
         offset="0%"
         stop-opacity="1"
         style="stop-color:rgb(178,254,250)"
         id="stop1-3" />
      <stop
         offset="98.26086956521739%"
         stop-opacity="1"
         style="stop-color:rgb(14,210,247)"
         id="stop2-6" />
    </linearGradient>
  </defs>
  <sodipodi:namedview
     id="namedview2"
     pagecolor="#ffffff"
     bordercolor="#666666"
     borderopacity="1.0"
     inkscape:showpageshadow="2"
     inkscape:pageopacity="0.0"
     inkscape:pagecheckerboard="0"
     inkscape:deskcolor="#d1d1d1"
     inkscape:document-units="pt"
     inkscape:current-layer="svg2" />
  <linearGradient
     id="_lgradient_4"
     x1="0.08593750000000017"
     y1="0.9359756097560975"
     x2="0.9008109177215193"
     y2="0.1577004219409287"
     gradientTransform="matrix(48,0,0,44.727,0,1.636)"
     gradientUnits="userSpaceOnUse">
    <stop
       offset="0%"
       stop-opacity="1"
       style="stop-color:rgb(249,106,219)"
       id="stop1" />
    <stop
       offset="98.75%"
       stop-opacity="1"
       style="stop-color:rgb(188,49,210)"
       id="stop2" />
  </linearGradient>
  <path
     d=" M 43.636 19.091 L 43.636 19.091 C 43.636 17.887 44.614 16.909 45.818 16.909 L 45.818 16.909 C 47.022 16.909 48 17.887 48 19.091 L 48 19.091 L 48 40.909 C 48 43.92 45.556 46.364 42.545 46.364 L 20.727 46.364 L 20.727 46.364 C 19.523 46.364 18.545 45.386 18.545 44.182 L 18.545 44.182 C 18.545 42.978 19.523 42 20.727 42 L 20.727 42 L 41.455 42 C 42.659 42 43.636 41.022 43.636 39.818 L 43.636 19.091 L 43.636 19.091 Z  M 4.364 27.818 L 4.364 27.818 C 4.364 29.022 3.386 30 2.182 30 L 2.182 30 C 0.978 30 0 29.022 0 27.818 L 0 27.818 L 0 6 C 0 3.592 1.955 1.636 4.364 1.636 L 17.411 1.636 C 18.615 1.636 20.203 2.4 20.956 3.34 L 23.275 6.239 C 23.651 6.709 24.445 7.091 25.047 7.091 L 45.818 7.091 L 45.818 7.091 C 47.022 7.091 48 8.069 48 9.273 L 48 9.273 C 48 10.477 47.022 11.455 45.818 11.455 L 45.818 11.455 L 24.044 11.455 C 22.839 11.455 21.251 10.691 20.499 9.751 L 18.861 7.704 C 18.109 6.763 16.521 6 15.316 6 L 6.545 6 C 5.341 6 4.364 6.978 4.364 8.182 L 4.364 27.818 L 4.364 27.818 Z  M 12 42 L 12 42 C 13.204 42 14.182 42.978 14.182 44.182 L 14.182 44.182 C 14.182 45.386 13.204 46.364 12 46.364 L 12 46.364 L 6.545 46.364 C 4.811 46.364 3.142 45.676 1.92 44.444 C 0.687 43.222 0 41.553 0 39.818 L 0 35.455 L 0 35.455 C 0 34.25 0.978 33.273 2.182 33.273 L 2.182 33.273 C 3.386 33.273 4.364 34.25 4.364 35.455 L 4.364 35.455 L 4.364 39.818 C 4.364 40.396 4.593 40.953 5.007 41.356 C 5.411 41.771 5.967 42 6.545 42 L 12 42 Z "
     fill-rule="evenodd"
     fill="url(#_lgradient_4)"
     id="path2" />
  <path
     d="m 7.3864089,34.670539 c 0.9697394,-3.595603 1.913228,-6.225326 3.8372651,-9.126051 0.619213,-0.93268 1.214491,-1.776569 1.857638,-2.560236 l -7.72e-4,7.72e-4 c 0,0 0.0054,-0.0062 0.01467,-0.01699 0.01158,-0.01467 0.02316,-0.02857 0.03474,-0.04246 0.237802,-0.294165 1.226843,-1.628329 0.51498,-2.672189 -0.782122,-1.145775 -3.630346,-1.064706 -3.630346,-1.064706 0,0 1.222984,-0.768225 3.58711,-1.172025 2.218973,-0.379094 4.485816,0.432367 4.895794,0.525018 1.097133,-0.616897 2.368758,-1.233021 3.875869,-1.872308 5.213122,-2.212797 10.159874,-1.836019 12.847504,-0.782895 3.522254,1.379717 3.902892,3.355484 4.384673,4.274266 0.346667,0.660905 2.503102,1.626012 2.063785,2.534757 -0.27409,0.567483 -1.714802,0.227765 -2.8544,0.0471 -1.198277,-0.189161 -1.340341,-0.413838 -4.430227,-0.149784 -1.421409,0.121217 -2.879879,0.406117 -3.957711,0.652412 -0.208463,0.983637 -0.817638,3.047422 -2.413539,4.347614 -2.154891,1.75495 -5.199996,2.462952 -5.199996,2.462952 0,0 1.575054,-1.141914 2.395009,-2.472217 0.558218,-0.905657 0.468656,-2.059153 0.35516,-2.703072 l -0.0062,0.0023 c -1.682375,0.752784 -3.164007,1.360415 -6.508681,3.644244 -2.926977,1.998158 -4.700457,4.314414 -4.700457,4.314414 0,0 1.591268,-3.3578 4.96065,-6.146573 2.766382,-2.290006 5.157531,-3.66509 8.681329,-4.685015 3.851163,-1.114892 6.841451,-1.297104 6.841451,-1.297104 0,0 -0.491819,-1.711713 -3.761601,-2.392693 -2.842819,-0.592189 -6.914798,0.16291 -11.252375,2.438246 -6.129587,3.214965 -7.680707,6.578169 -9.791589,10.173772 -2.2459965,3.827228 -3.5824766,9.687357 -3.5824766,9.687357 0,0 0.1374312,-2.960948 0.9427165,-5.948919 z"
     fill="url(#_lgradient_20)"
     id="path2-7"
     style="isolation:isolate;fill:url(#_lgradient_20);stroke-width:0.772086" />
</svg>
